Patient4_TMGait_0pt4_02_left_13_EMG.mot
version=1
nRows=23
nColumns=33
inDegrees=no
endheader
time	1LAddLong	2LGlutMax	3LGlutMed	4LIliopsoas	5LSemiMemb	6LBicFemLong	7LRecFem	8LVastMed	9LVastLat	10LGasMed	11LTibAnt	12lTibPost	13LPeroneusLong	14LSol	15LExtDigLong	16LFlexDigLong	17RAddLong	18RGlutMax	19RGlutMed	20RIliopsoas	21RSemiMemb	22RBicFemLong	23RRecFem	24RVastMed	25RVastLat	26RGasMed	27RTibAnt	28RTibPost	29RPeroneusLong	30RSol	31RExtDigLong	32RFlexDigLong
18.743	0.011292	0.088196	-0.034943	0.031281	-0.01236	0.060425	0.10269	0.014496	0.054474	-0.017242	0.078278	-0.008545	-0.013123	0.018463	-0.016632	-0.002441	-0.002289	-0.063171	-0.16403	0.11643	-0.14587	0.036774	-0.002441	-0.049744	-0.27634	0.006104	-0.065002	-0.017853	0.14114	-0.24323	-0.002747	-0.009003
18.744	0.009308	0.11795	-0.033875	0.008087	-0.05722	0.077515	0.10422	0.009918	0.020599	0.017853	0.074158	-0.002289	0.025177	-0.002747	-0.02655	-0.009766	0	-0.057068	-0.15121	0.08194	-0.13916	0.002441	-0.038757	-0.072937	-0.16922	0.019531	-0.13092	-0.01236	0.29556	-0.37949	-0.001526	-0.000916
18.745	0.006104	0.097198	-0.038147	-0.002747	-0.12238	0.044556	0.11734	0.013733	0.014191	0.010986	0.019684	-0.005798	0.032806	0.00824	-0.008087	-0.009613	0.007477	-0.07782	0.11185	0.041809	-0.008545	-0.029907	-0.11398	-0.091553	-0.23544	0.047302	-0.17303	0.00946	0.17197	-0.20752	-0.002441	-0.005798
18.746	0.022888	0.092468	-0.009918	-0.007629	-0.11505	-0.014648	0.11993	0.001373	0.017395	-0.018768	-0.088501	-0.010529	0.042572	0.009155	-0.016937	-0.005035	0.006409	-0.11932	0.23148	-0.011139	0.037537	0.006409	-0.072784	-0.073547	-0.14816	0.018158	0.22369	0.029144	0.1181	-0.13825	0	-0.003967
18.747	0.009308	0.076141	-0.009308	0.011139	0.030212	-0.04303	0.12177	0.003357	0.050812	-0.023499	-0.071106	-0.009918	0.029907	0.039978	-0.002136	0.000153	-0.000458	-0.13641	-0.14969	-0.049744	0.016479	0.002594	0.08728	-0.001068	-0.041199	-0.019836	0.46768	-0.000916	0.021057	0.16235	-0.001678	-0.005341
18.748	0.003052	0.079651	0.005035	0.024719	0.027618	-0.041046	0.11032	0.017242	0.067749	-0.014343	0.012512	-0.021057	0.005646	0.048676	0.000916	-0.001678	-0.007935	-0.14053	-0.043182	-0.013123	0.015564	0.010834	0.069122	0.19882	0.10437	-0.000916	-0.008545	0.002136	-0.10025	0.25192	0.003204	-0.004578
18.749	0.007477	0.066376	-0.023956	0.029297	0.016937	-0.038757	0.10437	-0.002899	0.083771	-0.022736	0.10147	-0.007629	0.033722	0.034027	-0.018158	0.001526	-0.016479	-0.15625	0.16785	0.029602	0.017242	0.026245	0.030823	0.14374	0.094757	-0.013885	-0.34714	-0.002594	-0.095825	0.18158	-0.003662	0.006409
18.75	0.007019	0.076599	0.002136	0.005951	0.016174	-0.044708	0.092163	0.007782	0.088806	-0.012512	0.13962	-0.014954	0.08255	0.019989	0.018005	0.011292	-0.016785	-0.15411	0.016174	-0.043335	0.054474	0.037994	-0.099792	0.012207	0.037079	0.007324	-0.65628	-0.005188	-0.001221	0.077515	0.000763	-0.001068
18.751	0.042267	0.091858	0.001984	0.003052	0.007935	-0.00885	0.074921	0.00473	0.10269	-0.025635	0.022888	-0.016785	0.086517	0.043488	-0.002594	0.004272	-0.005798	-0.18692	0.20599	-0.048218	0.069885	0.042267	-0.1387	-0.089264	-0.019836	0.020599	-0.18234	0.00061	0.10956	-0.20813	0.008087	-0.000763
18.752	0.037231	0.081329	0.020905	-0.001831	-0.011444	-0.031891	0.066528	0.00824	0.11307	-0.026855	-0.061188	-0.011749	0.069885	0.024109	-0.028229	0.002594	0.015564	-0.12177	0.1033	0.021667	0.033264	0.022888	-0.14313	-0.074768	-0.10483	0.016632	0.21545	0.001221	0.10208	-0.55985	-0.002594	-0.007324
18.753	-0.011139	0.071411	-0.00412	0.014038	0.00946	-0.034332	0.06546	0.01236	0.11368	-0.014801	-0.1062	-0.017853	0.072327	-0.076141	0.002289	-0.005798	0.010986	-0.026398	-0.32227	0.076294	0.018921	0.042877	-0.12726	-0.062714	-0.041351	0.007019	0.22263	-0.003357	-0.059052	-0.68039	-0.002899	-0.009155
18.754	0.010223	0.097809	-0.074158	0.016632	0.007629	-0.014343	0.052185	0.006104	0.12695	-0.008087	-0.099182	-0.01358	0.040283	-0.11643	0.045624	0.005035	0.010223	0.002747	-0.25772	0.15747	-0.03418	0.020752	-0.10529	-0.061493	0.02655	0.002899	0.57938	-0.005341	-0.07843	-0.21408	-0.002441	-0.016785
18.755	0.004578	0.0383	-0.078583	0.010223	-0.022888	-0.031433	0.052338	0.017548	0.1207	-0.01709	-0.061798	-0.019531	0.018768	-0.059814	0.17059	-0.002136	0.010681	-0.035706	0.2887	0.16007	-0.056915	-0.002136	-0.034332	-0.026703	0.045166	0	0.63599	-0.003357	-0.076904	-0.035095	-0.008392	-0.017548
18.756	-0.00351	0.048981	-0.020599	0.007477	-0.051422	-0.049744	0.034485	0.018768	0.1178	-0.044861	-0.02533	-0.024567	0.023193	-0.05127	-0.002136	0.002747	0.010071	-0.089264	0.2211	0.065613	-0.074158	0.006714	-0.018768	-0.06073	0	-0.003815	0.11963	-0.002136	-0.12482	0.016785	-0.00351	-0.014038
18.757	0.003967	0.028534	0.075684	0.001373	-0.035553	-0.044098	0.011597	0.00473	0.11475	-0.029755	-0.016785	-0.012817	0.024872	-0.041656	-0.006409	0.003815	-0.005646	-0.12573	-0.1387	-0.050049	0.036163	-0.020142	-0.19836	0.043945	0.11429	-0.010681	-0.50827	-0.005188	-0.10803	0.25848	0.000305	-0.019226
18.758	0.000305	0.036469	0.059814	0.003967	0.014801	-0.023193	0.010071	0.018311	0.11231	-0.016479	-0.007172	-0.024109	0.034637	0.026703	-0.11032	0.004272	-0.021057	-0.085754	0.29175	-0.10651	0.069122	0.009155	-0.14801	0.056458	0.13001	0.00351	-0.3595	0.001526	-0.11154	0.40253	-0.002136	-0.012817
18.759	0.005798	0.012207	0.000305	0.012512	0.072479	-0.020294	-0.019379	0.017395	0.1268	-0.010223	-0.001068	-0.023956	0.036469	-0.005951	-0.084839	-0.016632	-0.010986	-0.11215	0.10635	-0.046234	0.05722	0.001678	-0.1326	0.046692	0.060883	0.023956	-0.18478	0.000458	0.077057	0.18173	0.000763	-0.002747
18.76	0.008698	0.015717	-0.049744	0.015564	0.006866	-0.003052	-0.024261	0.003967	0.11871	-0.016937	0.017853	-0.028534	0.02121	0.023956	-0.03891	-0.006104	0.000916	-0.1088	-0.22553	-0.00885	0.023041	0.020294	-0.10559	-0.016937	0.03418	0.021362	0.058899	0.00473	0.085907	0.11063	-0.004425	-0.006561
18.761	0.01358	0.010071	-0.088348	0.017242	-0.076141	-0.016174	-0.037994	0.006256	0.12299	-0.021667	0.033875	-0.025177	0.007629	0.020142	0.003357	0.00061	0.000153	-0.1033	-0.19974	0.036163	-0.027161	0.031128	-0.11688	0.019531	0.001984	0.014038	0.079498	-0.001373	-0.02533	-0.18677	-0.00412	-0.012054
18.762	0.013123	-0.000153	-0.042267	0.008392	-0.018463	-0.044861	-0.032806	0.004425	0.13825	-0.023499	0.009003	-0.022888	-0.014648	-0.027313	0.029449	0	0.021057	-0.088348	-0.075531	0.10757	-0.12695	0.03067	-0.1062	-0.017853	-0.008545	0.003967	-0.3363	-0.002594	-0.16586	-0.18906	-0.003662	-0.000153
18.763	0.009155	0.016174	0.040283	-0.011444	0.033264	-0.022888	-0.046539	0.015564	0.14038	-0.038605	-0.03418	-0.025024	0.027466	0.0383	0.19547	-0.002594	0.009766	-0.055542	-0.25223	0.087128	-0.14633	0.016632	-0.005798	0.013885	-0.000153	0.010834	-0.36438	-0.010529	-0.17166	-0.20508	-0.001984	0.000763
18.764	0.003967	0.009766	0.11353	-0.001984	0.018616	-0.006104	-0.043488	0.012817	0.11414	-0.042419	-0.053406	-0.011292	0.00885	0.041504	0.19318	0.006104	0.002747	-0.027771	0.022583	-0.078278	0.027008	0.001831	0.064392	-0.038605	-0.016632	0.002441	-0.33493	-0.007935	-0.17273	-0.30258	-0.00351	-0.000458
18.765	0.010223	-0.022888	0.051422	0.011292	0.005341	-0.014191	-0.053101	0.01297	0.1004	-0.077515	-0.007935	-0.016937	0.042572	0.005341	-0.071411	0.007172	0.010071	-0.076599	0.18463	-0.13519	0.12634	-0.015106	0.09201	-0.02243	-0.029755	0.003357	-0.17212	-0.014954	0.16708	-0.17792	-0.002441	0.002441
